<mxfile host="app.diagrams.net" agent="Mozilla/5.0 (Windows NT 10.0; Win64; x64) AppleWebKit/537.36 (KHTML, like Gecko) Chrome/129.0.0.0 Safari/537.36" version="24.7.16">
  <diagram name="第 1 页" id="jyEIvZpzezmdStYIL3Ut">
    <mxGraphModel dx="1207" dy="711" grid="1" gridSize="10" guides="1" tooltips="1" connect="1" arrows="1" fold="1" page="1" pageScale="1" pageWidth="4681" pageHeight="3300" math="0" shadow="0">
      <root>
        <mxCell id="0" />
        <mxCell id="1" parent="0" />
        <mxCell id="Cr1HqWK0NTdGTU9dw--f-9" style="edgeStyle=orthogonalEdgeStyle;rounded=0;orthogonalLoop=1;jettySize=auto;html=1;exitX=1;exitY=0.5;exitDx=0;exitDy=0;entryX=0;entryY=0.5;entryDx=0;entryDy=0;" edge="1" parent="1" source="Cr1HqWK0NTdGTU9dw--f-7" target="Cr1HqWK0NTdGTU9dw--f-8">
          <mxGeometry relative="1" as="geometry" />
        </mxCell>
        <mxCell id="Cr1HqWK0NTdGTU9dw--f-10" value="连接" style="edgeLabel;html=1;align=center;verticalAlign=middle;resizable=0;points=[];" vertex="1" connectable="0" parent="Cr1HqWK0NTdGTU9dw--f-9">
          <mxGeometry relative="1" as="geometry">
            <mxPoint as="offset" />
          </mxGeometry>
        </mxCell>
        <mxCell id="Cr1HqWK0NTdGTU9dw--f-7" value="" style="rounded=1;whiteSpace=wrap;html=1;dashed=1;" vertex="1" parent="1">
          <mxGeometry x="390" y="130" width="160" height="220" as="geometry" />
        </mxCell>
        <mxCell id="Cr1HqWK0NTdGTU9dw--f-5" style="edgeStyle=orthogonalEdgeStyle;rounded=0;orthogonalLoop=1;jettySize=auto;html=1;exitX=1;exitY=0.5;exitDx=0;exitDy=0;" edge="1" parent="1" source="Cr1HqWK0NTdGTU9dw--f-1">
          <mxGeometry relative="1" as="geometry">
            <mxPoint x="390" y="240" as="targetPoint" />
          </mxGeometry>
        </mxCell>
        <mxCell id="Cr1HqWK0NTdGTU9dw--f-6" value="当前时间" style="edgeLabel;html=1;align=center;verticalAlign=middle;resizable=0;points=[];" vertex="1" connectable="0" parent="Cr1HqWK0NTdGTU9dw--f-5">
          <mxGeometry x="-0.1535" relative="1" as="geometry">
            <mxPoint y="-1" as="offset" />
          </mxGeometry>
        </mxCell>
        <mxCell id="Cr1HqWK0NTdGTU9dw--f-1" value="设备" style="rounded=0;whiteSpace=wrap;html=1;" vertex="1" parent="1">
          <mxGeometry x="160" y="210" width="120" height="60" as="geometry" />
        </mxCell>
        <mxCell id="Cr1HqWK0NTdGTU9dw--f-2" value="简单认证" style="rounded=0;whiteSpace=wrap;html=1;" vertex="1" parent="1">
          <mxGeometry x="410" y="150" width="120" height="60" as="geometry" />
        </mxCell>
        <mxCell id="Cr1HqWK0NTdGTU9dw--f-3" value="加密认证" style="rounded=0;whiteSpace=wrap;html=1;" vertex="1" parent="1">
          <mxGeometry x="410" y="260" width="120" height="60" as="geometry" />
        </mxCell>
        <mxCell id="Cr1HqWK0NTdGTU9dw--f-12" style="edgeStyle=orthogonalEdgeStyle;rounded=0;orthogonalLoop=1;jettySize=auto;html=1;exitX=1;exitY=0.5;exitDx=0;exitDy=0;entryX=0;entryY=0.5;entryDx=0;entryDy=0;" edge="1" parent="1" source="Cr1HqWK0NTdGTU9dw--f-8" target="Cr1HqWK0NTdGTU9dw--f-11">
          <mxGeometry relative="1" as="geometry" />
        </mxCell>
        <mxCell id="Cr1HqWK0NTdGTU9dw--f-13" value="认证通过" style="edgeLabel;html=1;align=center;verticalAlign=middle;resizable=0;points=[];" vertex="1" connectable="0" parent="Cr1HqWK0NTdGTU9dw--f-12">
          <mxGeometry x="-0.3273" y="3" relative="1" as="geometry">
            <mxPoint x="14" y="1" as="offset" />
          </mxGeometry>
        </mxCell>
        <mxCell id="Cr1HqWK0NTdGTU9dw--f-14" style="edgeStyle=orthogonalEdgeStyle;rounded=0;orthogonalLoop=1;jettySize=auto;html=1;exitX=0.5;exitY=0;exitDx=0;exitDy=0;entryX=0.5;entryY=0;entryDx=0;entryDy=0;dashed=1;" edge="1" parent="1" source="Cr1HqWK0NTdGTU9dw--f-8" target="Cr1HqWK0NTdGTU9dw--f-1">
          <mxGeometry relative="1" as="geometry">
            <Array as="points">
              <mxPoint x="720" y="90" />
              <mxPoint x="220" y="90" />
            </Array>
          </mxGeometry>
        </mxCell>
        <mxCell id="Cr1HqWK0NTdGTU9dw--f-15" value="认证不通过" style="edgeLabel;html=1;align=center;verticalAlign=middle;resizable=0;points=[];" vertex="1" connectable="0" parent="Cr1HqWK0NTdGTU9dw--f-14">
          <mxGeometry x="0.0595" y="-1" relative="1" as="geometry">
            <mxPoint as="offset" />
          </mxGeometry>
        </mxCell>
        <mxCell id="Cr1HqWK0NTdGTU9dw--f-8" value="平台" style="rounded=0;whiteSpace=wrap;html=1;" vertex="1" parent="1">
          <mxGeometry x="660" y="210" width="120" height="60" as="geometry" />
        </mxCell>
        <mxCell id="Cr1HqWK0NTdGTU9dw--f-17" style="edgeStyle=orthogonalEdgeStyle;rounded=0;orthogonalLoop=1;jettySize=auto;html=1;exitX=0.5;exitY=1;exitDx=0;exitDy=0;entryX=0.5;entryY=1;entryDx=0;entryDy=0;dashed=1;" edge="1" parent="1" source="Cr1HqWK0NTdGTU9dw--f-11" target="Cr1HqWK0NTdGTU9dw--f-1">
          <mxGeometry relative="1" as="geometry">
            <Array as="points">
              <mxPoint x="950" y="400" />
              <mxPoint x="220" y="400" />
            </Array>
          </mxGeometry>
        </mxCell>
        <mxCell id="Cr1HqWK0NTdGTU9dw--f-18" value="建立连接" style="edgeLabel;html=1;align=center;verticalAlign=middle;resizable=0;points=[];" vertex="1" connectable="0" parent="Cr1HqWK0NTdGTU9dw--f-17">
          <mxGeometry x="0.0323" relative="1" as="geometry">
            <mxPoint as="offset" />
          </mxGeometry>
        </mxCell>
        <mxCell id="Cr1HqWK0NTdGTU9dw--f-11" value="创建设备" style="rounded=0;whiteSpace=wrap;html=1;" vertex="1" parent="1">
          <mxGeometry x="890" y="210" width="120" height="60" as="geometry" />
        </mxCell>
      </root>
    </mxGraphModel>
  </diagram>
</mxfile>
